<?xml version="1.0" encoding="utf-8"?>
<!-- Generator: Adobe Illustrator 14.0.0, SVG Export Plug-In . SVG Version: 6.00 Build 43363)  -->
<!DOCTYPE svg PUBLIC "-//W3C//DTD SVG 1.1//EN" "http://www.w3.org/Graphics/SVG/1.1/DTD/svg11.dtd">
<svg version="1.1" id="레이어_1" xmlns="http://www.w3.org/2000/svg" xmlns:xlink="http://www.w3.org/1999/xlink" x="0px"
	 y="0px" width="180.001px" height="180px" viewBox="0 0 180.001 180" enable-background="new 0 0 180.001 180"
	 xml:space="preserve">
<g>
	<circle fill="#FF6565" cx="90" cy="90" r="90"/>
	<g>
		<path fill="#FFFFFF" d="M46.075,60.229l-7.49,1.523c-0.932,0-1.63-0.127-2.096-0.381s-0.697-0.857-0.697-1.809
			s0.539-2.104,1.618-3.459c1.079-1.354,2.274-2.497,3.587-3.428c4.865-3.469,10.642-6.559,17.328-9.268
			c6.687-2.708,12.728-4.063,18.123-4.063s9.268,0.952,11.616,2.856s3.522,5.608,3.522,11.108c0,6.263-3.089,16.462-9.268,30.596
			c-2.581,5.882-5.142,11.722-7.681,17.52c-6.179,14.008-9.268,23.677-9.268,29.009l0.19,4.189c0,1.313-0.72,2.349-2.158,3.11
			s-2.941,1.143-4.507,1.143l-25.454,0.381c-4.697,0-7.553-0.805-8.568-2.412c-0.467-0.804-0.699-2.041-0.699-3.713
			s0.307-3.851,0.921-6.539c0.612-2.687,2.317-7.277,5.11-13.773s5.586-12.579,8.379-18.25
			c7.236-14.769,10.854-24.269,10.854-28.501c0-2.2-0.275-3.723-0.824-4.57C48.063,60.652,47.218,60.229,46.075,60.229z
			 M127.07,41.884l25.898-1.46c1.904,0,2.856,0.825,2.856,2.476s-1.079,5.967-3.237,12.949s-4.37,12.23-6.634,15.742
			c-2.264,3.513-4.739,6.411-7.426,8.696c-2.688,2.285-5.894,4.211-9.617,5.776c-6.221,2.666-14.304,4.634-24.248,5.903
			c1.143-0.085,2.889-0.127,5.236-0.127c2.35,0,4.465,0.054,6.348,0.158c1.883,0.106,3.841,0.297,5.872,0.571
			c2.031,0.276,3.745,0.688,5.142,1.238s2.687,1.27,3.872,2.158c2.327,1.692,3.491,4.295,3.491,7.808
			c0,0.889-0.19,2.454-0.571,4.697s-0.571,4.486-0.571,6.729c0,2.243,0.243,4.095,0.73,5.554c0.485,1.461,1.216,2.551,2.189,3.27
			c1.692,1.186,4.104,1.777,7.236,1.777c3.131,0,4.697,1.059,4.697,3.174c0,2.793-2.519,5.375-7.554,7.744
			c-5.544,2.623-14.262,3.936-26.152,3.936c-11.172,0-18.323-2.074-21.455-6.221c-1.354-1.861-2.031-4.316-2.031-7.363
			s0.814-7.554,2.444-13.521c1.628-5.967,2.443-9.701,2.443-11.204c0-1.501-0.222-2.813-0.666-3.936
			c-0.444-1.12-1.016-1.978-1.714-2.57s-1.482-1.068-2.349-1.429c-0.868-0.358-1.736-0.624-2.603-0.793
			c-0.868-0.169-1.661-0.317-2.381-0.444c-1.565-0.339-2.349-0.931-2.349-1.777c0-1.862,1.333-3.301,3.999-4.316
			c10.537-3.724,18.238-8.844,23.105-15.361c2.496-3.342,4.496-6.897,5.999-10.664c1.501-3.766,2.824-8.315,3.967-13.647
			C121.802,43.725,123.812,41.884,127.07,41.884z"/>
	</g>
</g>
<g>
	<path d="M638.991,374.792v-15.244h10.664v-64.6h-10.664v-15.244h31.719v60.054l22.719-18.491h-13.969V308.62h39.99v13.398h-6.631
		l-19.353,16.517l17.639,21.013h9.165v15.244h-20.303l-29.258-35.034V360.3h7.998v14.492H638.991z"/>
	<path d="M808.727,359.548v15.244H776.94v-5.64c-6.335,4.398-12.761,6.597-19.277,6.597c-6.381,0-11.382-1.79-15.005-5.372
		c-3.623-3.583-5.435-8.637-5.435-15.162v-31.351h-9.912V308.62h30.967v41.221c0,3.281,0.501,5.526,1.504,6.733
		c1.002,1.208,2.825,1.812,5.469,1.812c3.555,0,7.451-1.572,11.689-4.717v-29.805h-10.186V308.62h31.309v50.928H808.727z"/>
	<path d="M816.178,323.864V308.62h32.061v5.4c7.2-4.283,14.355-6.426,21.465-6.426c8.521,0,15.13,3.008,19.824,9.023
		c8.521-6.016,17.432-9.023,26.729-9.023c5.514,0,9.991,1.015,13.433,3.042c3.44,2.028,5.799,4.751,7.075,8.169
		c1.275,3.418,1.914,8.591,1.914,15.518v25.225h10.938v15.244h-32.061v-38.76c0-6.927-2.985-10.391-8.955-10.391
		c-4.694,0-9.775,1.504-15.244,4.512v29.395h10.938v15.244h-32.061v-38.145c0-7.337-2.871-11.006-8.613-11.006
		c-4.467,0-9.594,1.504-15.381,4.512v29.395h10.938v15.244h-42.998v-15.244h10.938v-35.684H816.178z"/>
	<path d="M1030.416,359.548v15.244h-31.787v-5.229c-5.697,4.125-11.713,6.187-18.047,6.187c-6.562,0-12.225-1.868-16.986-5.605
		c-4.763-3.736-7.144-8.75-7.144-15.039c0-6.334,2.506-11.644,7.52-15.928c5.013-4.283,11.484-6.426,19.413-6.426
		c4.42,0,9.502,1.117,15.244,3.35v-4.033c0-3.372-1.139-6.141-3.418-8.306c-2.279-2.164-5.332-3.247-9.16-3.247
		c-4.74,0-8.795,1.732-12.167,5.195l-17.021-3.076c4.922-10.436,15.608-15.654,32.06-15.654c6.381,0,11.666,0.718,15.859,2.153
		s7.314,3.293,9.365,5.571c2.051,2.279,3.498,4.774,4.342,7.485c0.842,2.712,1.264,7.121,1.264,13.228v24.131H1030.416z
		 M998.628,350.319c-5.104-3.189-9.184-4.785-12.236-4.785c-2.416,0-4.613,0.707-6.596,2.119c-1.982,1.413-2.974,3.464-2.974,6.152
		c0,2.416,0.797,4.489,2.393,6.221c1.595,1.732,3.646,2.598,6.151,2.598c3.92,0,8.34-2.301,13.262-6.904V350.319z"/>
	<path d="M1040.535,374.792v-22.764h15.449c0.137,3.1,1.572,5.571,4.307,7.417s6.105,2.769,10.117,2.769
		c3.463,0,6.162-0.604,8.1-1.812c1.938-1.207,2.906-2.745,2.906-4.614c0-1.731-0.889-3.076-2.666-4.033s-5.264-1.87-10.459-2.741
		c-10.709-1.74-18.434-4.375-23.174-7.904c-4.74-3.53-7.109-8.211-7.109-14.042c0-5.465,2.232-10.078,6.699-13.835
		c4.465-3.758,10.391-5.638,17.773-5.638c5.969,0,11.553,1.105,16.748,3.315v-2.29h15.107v19.209h-15.107
		c-1.367-4.603-6.199-6.904-14.492-6.904c-6.107,0-9.16,1.687-9.16,5.059c0,1.276,0.625,2.245,1.879,2.905
		c1.254,0.661,4.455,1.447,9.605,2.357c8.156,1.412,14.264,2.825,18.32,4.237c4.055,1.413,7.303,3.749,9.74,7.008
		s3.658,7.167,3.658,11.724c0,6.472-2.314,11.77-6.939,15.895s-11.176,6.187-19.652,6.187c-7.885,0-13.285-1.606-16.201-4.819v3.315
		H1040.535z"/>
	<path d="M1112.996,374.792v-22.9h22.832v22.9H1112.996z"/>
</g>
</svg>
